# Blender v2.79 (sub 0) OBJ File: 'raptor.blend'
# www.blender.org
mtllib raptor.mtl
o hands_Cylinder.005
v 5.066074 3.638345 0.720416
v 5.066074 4.050179 0.720416
v 5.499087 3.638345 0.970416
v 5.499087 4.050179 0.970416
v 5.499087 3.638345 1.470416
v 5.499087 4.050179 1.470416
v 5.066074 3.638345 1.720416
v 5.066074 4.050179 1.720416
v 4.633062 3.638345 1.470416
v 4.633062 4.050179 1.470416
v 4.633062 3.638345 0.970416
v 4.633062 4.050179 0.970416
v 5.059976 3.638345 -1.678278
v 5.059976 4.050179 -1.678278
v 5.492989 3.638345 -1.428278
v 5.492989 4.050179 -1.428278
v 5.492989 3.638345 -0.928278
v 5.492989 4.050179 -0.928278
v 5.059976 3.638345 -0.678278
v 5.059976 4.050179 -0.678278
v 4.626963 3.638345 -0.928278
v 4.626963 4.050179 -0.928278
v 4.626963 3.638345 -1.428278
v 4.626963 4.050179 -1.428278
v 5.499087 3.638345 0.970416
v 5.499087 4.050179 0.970416
v 5.499087 3.638345 1.470416
v 5.499087 4.050179 1.470416
v 5.967486 3.727162 1.220416
v 5.492989 3.638345 -1.428278
v 5.492989 4.050179 -1.428278
v 5.492989 3.638345 -0.928278
v 5.492989 4.050179 -0.928278
v 5.513975 3.727162 1.996203
v 5.507876 3.727162 -0.402491
v 5.961388 3.727162 -1.178278
v 5.549715 3.727162 0.382727
v 5.543616 3.727162 -2.015967
vn 0.0000 0.0000 1.0000
vn 0.5677 0.8232 0.0000
vn 0.2862 0.8200 0.4957
vn -0.5000 0.0000 0.8660
vn 0.0000 1.0000 0.0000
vn -1.0000 0.0000 0.0000
vn -0.5000 0.0000 -0.8660
vn 0.0000 -1.0000 0.0000
vn 0.2587 0.8558 -0.4481
vn -0.5243 0.0000 0.8515
vn -0.5725 0.0000 -0.8199
vn 0.4709 0.0000 0.8822
vn 0.9963 0.0000 0.0858
vn 0.0942 -0.9821 0.1632
vn 0.9996 0.0000 -0.0283
vn 0.0820 -0.9865 -0.1420
vn 0.1863 -0.9825 0.0000
vn 0.4709 0.0000 -0.8822
usemtl Material.003
s off
f 25//1 3//1 37//1
f 16//2 18//2 36//2
f 18//3 20//3 35//3
f 7//4 8//4 10//4 9//4
f 4//5 2//5 12//5 10//5 8//5 6//5
f 9//6 10//6 12//6 11//6
f 11//7 12//7 2//7 1//7
f 1//8 3//8 5//8 7//8 9//8 11//8
f 14//9 16//9 38//9
f 18//1 33//1 36//1
f 8//10 7//10 34//10
f 19//4 20//4 22//4 21//4
f 16//5 14//5 24//5 22//5 20//5 18//5
f 21//6 22//6 24//6 23//6
f 23//7 24//7 14//7 13//7
f 13//8 15//8 17//8 19//8 21//8 23//8
f 1//11 2//11 37//11
f 33//12 32//12 36//12
f 33//1 18//1 35//1
f 26//13 25//13 37//13
f 6//1 28//1 29//1
f 19//14 17//14 35//14
f 6//3 8//3 34//3
f 31//13 30//13 38//13
f 27//15 28//15 34//15
f 15//16 13//16 38//16
f 28//1 6//1 34//1
f 17//17 15//17 36//17
f 2//9 4//9 37//9
f 32//15 33//15 35//15
f 15//1 30//1 36//1
f 4//1 26//1 37//1
f 17//1 32//1 35//1
f 20//10 19//10 35//10
f 5//1 27//1 34//1
f 7//14 5//14 34//14
f 31//1 16//1 36//1
f 27//1 5//1 29//1
f 25//18 26//18 29//18
f 26//1 4//1 29//1
f 32//1 17//1 36//1
f 5//17 3//17 29//17
f 30//18 31//18 36//18
f 4//2 6//2 29//2
f 28//12 27//12 29//12
f 3//1 25//1 29//1
f 30//1 15//1 38//1
f 13//11 14//11 38//11
f 16//1 31//1 38//1
f 3//16 1//16 37//16
o arms_Cylinder.004
v 4.083522 3.124157 0.713858
v 3.008598 3.889969 0.713858
v 4.516535 3.124157 0.963858
v 3.441611 3.889969 0.963858
v 4.516535 3.124157 1.463858
v 3.441611 3.889969 1.463858
v 4.083522 3.124157 1.713858
v 3.008598 3.889969 1.713858
v 3.650509 3.124157 1.463858
v 2.575586 3.889969 1.463858
v 3.650509 3.124157 0.963858
v 2.575586 3.889969 0.963858
v 4.105376 3.124157 -1.668188
v 3.030452 3.889969 -1.668188
v 4.538388 3.124157 -1.418188
v 3.463465 3.889969 -1.418188
v 4.538388 3.124157 -0.918188
v 3.463465 3.889969 -0.918188
v 4.105376 3.124157 -0.668188
v 3.030452 3.889969 -0.668188
v 3.672363 3.124157 -0.918188
v 2.597439 3.889969 -0.918188
v 3.672363 3.124157 -1.418188
v 2.597439 3.889969 -1.418188
v 3.008598 4.640139 0.713858
v 3.441611 4.640139 0.963858
v 3.441611 4.640139 1.463858
v 3.008598 4.640139 1.713858
v 2.575586 4.640139 1.463858
v 2.575586 4.640139 0.963858
v 3.030452 4.640139 -1.668188
v 3.463465 4.640139 -1.418188
v 3.463465 4.640139 -0.918188
v 3.030452 4.640139 -0.668188
v 2.597439 4.640139 -0.918188
v 2.597439 4.640139 -1.418188
v 4.993975 3.689066 0.713858
v 5.426988 3.689066 0.963858
v 5.426988 3.689066 1.463858
v 4.993975 3.689066 1.713858
v 4.560962 3.689066 1.463858
v 4.560962 3.689066 0.963858
v 5.015828 3.689066 -1.668188
v 5.448841 3.689066 -1.418188
v 5.448841 3.689066 -0.918188
v 5.015828 3.689066 -0.668188
v 4.582816 3.689066 -0.918188
v 4.582816 3.689066 -1.418188
vn 0.4093 0.5745 -0.7089
vn 0.5802 0.8144 0.0000
vn 0.4093 0.5745 0.7089
vn -0.4093 -0.5745 0.7089
vn -0.5000 0.0000 0.8660
vn -0.5802 -0.8144 0.0000
vn -0.4093 -0.5745 -0.7089
vn 0.5272 -0.8497 0.0000
vn -1.0000 0.0000 0.0000
vn -0.3893 0.6275 -0.6743
vn 0.0000 1.0000 0.0000
vn -0.5000 0.0000 -0.8660
vn 0.5000 0.0000 -0.8660
vn 0.5000 0.0000 0.8660
vn 1.0000 0.0000 0.0000
vn 0.0000 -1.0000 0.0000
vn -0.5272 0.8497 0.0000
vn 0.3893 -0.6275 -0.6743
vn -0.3893 0.6275 0.6743
vn 0.3893 -0.6275 0.6743
usemtl Material.005
s off
f 39//19 40//19 42//19 41//19
f 41//20 42//20 44//20 43//20
f 43//21 44//21 46//21 45//21
f 45//22 46//22 48//22 47//22
f 48//23 46//23 66//23 67//23
f 47//24 48//24 50//24 49//24
f 49//25 50//25 40//25 39//25
f 59//26 61//26 86//26 85//26
f 51//19 52//19 54//19 53//19
f 53//20 54//20 56//20 55//20
f 55//21 56//21 58//21 57//21
f 57//22 58//22 60//22 59//22
f 50//27 48//27 67//27 68//27
f 59//24 60//24 62//24 61//24
f 61//25 62//25 52//25 51//25
f 43//28 45//28 78//28 77//28
f 64//29 63//29 68//29 67//29 66//29 65//29
f 70//29 69//29 74//29 73//29 72//29 71//29
f 52//30 62//30 74//30 69//30
f 42//31 40//31 63//31 64//31
f 46//32 44//32 65//32 66//32
f 62//27 60//27 73//27 74//27
f 44//33 42//33 64//33 65//33
f 60//23 58//23 72//23 73//23
f 54//31 52//31 69//31 70//31
f 58//32 56//32 71//32 72//32
f 56//33 54//33 70//33 71//33
f 40//30 50//30 68//30 63//30
f 75//34 76//34 77//34 78//34 79//34 80//34
f 81//34 82//34 83//34 84//34 85//34 86//34
f 41//35 43//35 77//35 76//35
f 57//36 59//36 85//36 84//36
f 51//37 53//37 82//37 81//37
f 55//28 57//28 84//28 83//28
f 53//35 55//35 83//35 82//35
f 49//38 39//38 75//38 80//38
f 47//26 49//26 80//26 79//26
f 45//36 47//36 79//36 78//36
f 61//38 51//38 81//38 86//38
f 39//37 41//37 76//37 75//37
o head_Cylinder.003
v 3.265050 7.143844 -1.255763
v 3.265050 9.116407 -1.255763
v 5.035711 6.599680 -0.941172
v 5.292578 9.415941 -0.941172
v 5.035711 6.599680 0.798384
v 5.292578 9.415941 0.798384
v 3.265050 7.143844 1.112975
v 3.265050 9.116407 1.112975
v 2.720163 7.601803 0.278851
v 2.720163 9.116407 0.278851
v 2.720163 7.601803 -0.350330
v 2.720163 9.116407 -0.350330
v 5.035711 7.858044 -0.941172
v 5.035711 6.599680 -0.035739
v 5.292578 9.415941 -0.035739
v 5.035711 7.858044 0.798384
v 4.769424 9.691708 -0.165990
v 4.355727 9.737314 -0.296240
v 4.769424 9.691708 -0.035739
v 4.355727 9.737314 0.224761
v 4.769424 9.691708 0.094511
v 3.467004 9.737314 0.094511
v 3.467004 9.737314 -0.165990
v 7.397225 7.916332 -0.035739
v 7.320017 7.362950 -0.035739
v 5.035711 6.599680 -0.193035
v 5.035711 6.599680 0.121556
v 5.847576 9.062888 -0.783876
v 5.847576 9.062888 0.641089
v 5.847576 9.062888 -0.035739
v 5.292578 9.415941 0.121556
v 5.292578 9.415941 -0.193035
v 5.597083 7.533701 0.641089
v 5.597083 7.533701 -0.783876
v 6.892010 6.775061 -0.035739
v 5.635579 8.158999 0.641089
v 5.635579 8.158999 -0.783876
v 6.892010 6.775061 0.641089
v 6.892010 6.775061 -0.783876
v 7.276066 8.489611 0.302675
v 7.276066 8.489611 -0.409808
v 7.541912 8.489611 -0.035739
vn 0.1687 -0.0090 -0.9856
vn 0.1687 -0.0090 0.9856
vn -0.8372 0.0000 0.5469
vn -0.0013 0.8715 0.4904
vn -1.0000 0.0000 0.0000
vn -0.8568 0.0000 -0.5156
vn -0.3755 -0.9268 0.0000
vn 0.5367 0.8437 0.0000
vn 0.0350 0.9994 -0.0000
vn -0.3085 0.8499 -0.4271
vn -0.3036 0.8391 0.4514
vn 0.4663 0.8846 0.0000
vn -0.6393 0.7690 0.0000
vn -0.0093 0.8895 -0.4568
vn 0.2373 0.3144 -0.9192
vn 0.0941 -0.9956 0.0000
vn 0.2634 -0.1787 -0.9480
vn 0.2252 0.2928 0.9293
vn 0.2491 -0.1645 0.9544
vn 0.8084 -0.5886 0.0000
vn 0.4555 0.8754 -0.1619
vn 0.4542 0.8728 0.1784
vn -0.7713 0.1947 -0.6059
vn -0.7984 0.2015 0.5674
usemtl Material.001
s off
f 87//39 88//39 90//39 99//39 89//39
f 91//40 102//40 92//40 94//40 93//40
f 93//41 94//41 96//41 95//41
f 94//42 92//42 107//42 106//42
f 95//43 96//43 98//43 97//43
f 97//44 98//44 88//44 87//44
f 87//45 89//45 112//45 100//45 113//45 91//45 93//45 95//45 97//45
f 90//46 118//46 114//46
f 103//47 104//47 109//47 108//47 106//47 107//47 105//47
f 88//48 98//48 109//48 104//48
f 96//49 94//49 106//49 108//49
f 92//50 117//50 101//50 105//50 107//50
f 101//50 118//50 90//50 103//50 105//50
f 98//51 96//51 108//51 109//51
f 90//52 88//52 104//52 103//52
f 89//53 99//53 120//53 111//53 125//53
f 100//54 112//54 121//54
f 91//54 113//54 124//54
f 90//55 114//55 127//55 110//55 123//55 99//55
f 102//56 91//56 124//56 111//56 119//56
f 92//57 102//57 122//57 110//57 126//57 115//57
f 101//46 117//46 116//46
f 112//54 89//54 125//54
f 121//54 112//54 125//54
f 121//58 125//58 111//58
f 113//54 100//54 121//54
f 124//54 113//54 121//54
f 118//46 101//46 116//46
f 114//46 118//46 116//46
f 114//59 116//59 128//59 110//59 127//59
f 117//46 92//46 115//46
f 124//58 121//58 111//58
f 116//46 117//46 115//46
f 116//60 115//60 126//60 110//60 128//60
f 128//61 110//61 126//61
f 110//62 128//62 127//62
o Feet_Cylinder.002
v 0.015858 0.039261 0.439238
v 0.015858 0.451095 0.439238
v 0.448870 0.039261 0.689238
v 0.448870 0.451095 0.689238
v 0.448870 0.039261 1.189238
v 0.448870 0.451095 1.189238
v 0.015858 0.039261 1.439238
v 0.015858 0.451095 1.439238
v -0.417155 0.039261 1.189238
v -0.417155 0.451095 1.189238
v -0.417155 0.039261 0.689238
v -0.417155 0.451095 0.689238
v 0.009759 0.039261 -1.451436
v 0.009759 0.451095 -1.451436
v 0.442771 0.039261 -1.201436
v 0.442771 0.451095 -1.201436
v 0.442771 0.039261 -0.701436
v 0.442771 0.451095 -0.701436
v 0.009759 0.039261 -0.451436
v 0.009759 0.451095 -0.451436
v -0.423254 0.039261 -0.701436
v -0.423254 0.451095 -0.701436
v -0.423254 0.039261 -1.201436
v -0.423254 0.451095 -1.201436
v 0.448870 0.039261 0.689238
v 0.448870 0.451095 0.689238
v 0.448870 0.039261 1.189238
v 0.448870 0.451095 1.189238
v 0.917269 0.128078 0.939238
v 0.442771 0.039261 -1.201436
v 0.442771 0.451095 -1.201436
v 0.442771 0.039261 -0.701436
v 0.442771 0.451095 -0.701436
v 0.463758 0.128078 1.715025
v 0.457659 0.128078 -0.175649
v 0.911170 0.128078 -0.951436
v 0.499498 0.128078 0.101549
v 0.493399 0.128078 -1.789125
vn 0.0000 0.0000 1.0000
vn 0.5677 0.8232 0.0000
vn 0.2862 0.8200 0.4957
vn -0.5000 0.0000 0.8660
vn 0.0000 1.0000 0.0000
vn -1.0000 0.0000 0.0000
vn -0.5000 0.0000 -0.8660
vn 0.0000 -1.0000 0.0000
vn 0.2587 0.8558 -0.4481
vn -0.5243 0.0000 0.8515
vn -0.5725 0.0000 -0.8199
vn 0.4709 0.0000 0.8822
vn 0.9963 0.0000 0.0858
vn 0.0942 -0.9821 0.1632
vn 0.9996 0.0000 -0.0283
vn 0.0820 -0.9865 -0.1420
vn 0.1863 -0.9825 0.0000
vn 0.4709 0.0000 -0.8822
usemtl None
s off
f 153//63 131//63 165//63
f 144//64 146//64 164//64
f 146//65 148//65 163//65
f 135//66 136//66 138//66 137//66
f 132//67 130//67 140//67 138//67 136//67 134//67
f 137//68 138//68 140//68 139//68
f 139//69 140//69 130//69 129//69
f 129//70 131//70 133//70 135//70 137//70 139//70
f 142//71 144//71 166//71
f 146//63 161//63 164//63
f 136//72 135//72 162//72
f 147//66 148//66 150//66 149//66
f 144//67 142//67 152//67 150//67 148//67 146//67
f 149//68 150//68 152//68 151//68
f 151//69 152//69 142//69 141//69
f 141//70 143//70 145//70 147//70 149//70 151//70
f 129//73 130//73 165//73
f 161//74 160//74 164//74
f 161//63 146//63 163//63
f 154//75 153//75 165//75
f 134//63 156//63 157//63
f 147//76 145//76 163//76
f 134//65 136//65 162//65
f 159//75 158//75 166//75
f 155//77 156//77 162//77
f 143//78 141//78 166//78
f 156//63 134//63 162//63
f 145//79 143//79 164//79
f 130//71 132//71 165//71
f 160//77 161//77 163//77
f 143//63 158//63 164//63
f 132//63 154//63 165//63
f 145//63 160//63 163//63
f 148//72 147//72 163//72
f 133//63 155//63 162//63
f 135//76 133//76 162//76
f 159//63 144//63 164//63
f 155//63 133//63 157//63
f 153//80 154//80 157//80
f 154//63 132//63 157//63
f 160//63 145//63 164//63
f 133//79 131//79 157//79
f 158//80 159//80 164//80
f 132//64 134//64 157//64
f 156//74 155//74 157//74
f 131//63 153//63 157//63
f 158//63 143//63 166//63
f 141//73 142//73 166//73
f 144//63 159//63 166//63
f 131//78 129//78 165//78
o body_Cylinder.001
v -7.114622 2.991253 0.000000
v 3.262205 5.219033 -1.310764
v 4.186956 5.217282 -0.655382
v 4.186956 5.217282 0.655382
v 3.262205 5.219033 1.310763
v 2.967163 5.602610 0.451151
v 2.967163 5.602610 -0.451152
v -0.000000 3.672624 -1.310764
v 0.295042 2.576482 -0.655382
v 0.295042 2.576482 0.655382
v 0.000000 3.672623 1.310764
v -0.295042 5.385862 0.655382
v -0.295042 5.385862 -0.655382
v 1.265715 4.013309 -1.310764
v -0.970673 2.235797 -0.655382
v -0.970673 2.235796 0.655382
v -1.265715 3.331938 1.310764
v -1.560757 4.428080 0.655382
v -1.560757 4.428080 -0.655382
v -1.265715 3.331938 -1.310764
v 1.560757 2.917167 -0.655382
v 1.560757 2.917167 0.655382
v 1.265715 4.013309 1.310764
v 0.970673 5.603127 0.655382
v 0.970673 5.603128 -0.655382
v 3.328193 5.665719 -0.450748
v 4.415903 5.665116 -0.225374
v 4.415904 5.665116 0.225374
v 3.328193 5.665719 0.450748
v 2.967163 5.450135 0.655382
v 2.967163 5.450135 -0.655382
v 3.328193 7.659128 -0.450748
v 4.452184 7.658526 -0.225374
v 4.452184 7.658526 0.225374
v 3.328193 7.659128 0.450748
v 3.226734 7.738601 0.225374
v 3.226734 7.738601 -0.225374
v 1.265715 4.013309 -1.310764
v 3.262205 5.219033 -1.310764
v 2.967163 5.602610 -0.451152
v 0.970673 5.603128 -0.655382
v 3.987479 5.218158 -0.983073
v 2.263960 4.616171 -1.310764
v 3.987479 5.218158 0.983073
v 2.610958 4.067225 -0.655382
v 2.610958 4.067225 0.655382
v 2.263960 4.616171 1.310763
v 1.413236 3.465238 0.983073
v 1.413236 3.465238 -0.983073
v 2.437459 4.341698 0.983073
v 2.437459 4.341698 -0.983073
vn 0.4536 -0.6996 -0.5521
vn 0.5895 -0.8078 0.0000
vn 0.3459 -0.5959 0.7247
vn -0.1333 0.5781 0.8050
vn 0.0003 1.0000 0.0000
vn -0.8947 0.4466 0.0000
vn -0.1953 0.3807 -0.9038
vn -0.6034 0.7974 0.0000
vn -0.1953 0.3807 0.9038
vn 0.1300 -0.4828 0.8660
vn 0.2599 -0.9656 -0.0000
vn 0.1300 -0.4828 -0.8660
vn -0.1545 -0.5373 -0.8291
vn -0.1220 -0.9925 -0.0000
vn -0.1545 -0.5373 0.8291
vn -0.2198 0.4564 0.8622
vn -0.2505 0.9681 0.0000
vn -0.2198 0.4564 -0.8622
vn -0.0784 0.3556 -0.9314
vn -0.1692 0.9856 0.0000
vn -0.0784 0.3556 0.9314
vn 1.0000 0.0000 -0.0000
vn 0.2379 0.8064 0.5414
vn -0.1581 0.9068 -0.3909
vn -0.1581 0.9068 0.3909
vn 0.8904 -0.4552 -0.0000
vn 0.2379 0.8064 -0.5414
vn 0.9998 -0.0182 -0.0000
vn -0.9936 0.1127 0.0000
vn 0.1997 -0.0018 0.9799
vn 0.1997 -0.0018 -0.9799
vn -0.0751 0.1041 -0.9917
vn -0.0751 0.1041 0.9917
vn -0.1333 0.5781 -0.8050
vn 0.0000 0.0000 1.0000
vn 0.3596 -0.4916 0.7931
vn 0.4387 -0.4490 0.7784
vn 0.4536 -0.6996 0.5521
vn 0.7384 -0.6743 -0.0000
vn 0.4387 -0.4490 -0.7784
vn 0.3596 -0.4916 -0.7931
vn 0.3459 -0.5959 -0.7247
usemtl Material.004
s off
f 217//81 208//81 169//81 211//81
f 211//82 169//82 170//82 212//82
f 216//83 210//83 171//83 213//83
f 189//84 213//84 171//84 172//84 190//84
f 190//85 172//85 173//85 191//85
f 168//86 209//86 180//86 204//86 205//86
f 185//87 179//87 174//87 186//87
f 184//88 178//88 179//88 185//88
f 183//89 177//89 178//89 184//89
f 182//90 176//90 177//90 183//90
f 181//91 175//91 176//91 182//91
f 186//92 174//92 175//92 181//92
f 167//93 186//93 181//93
f 167//94 181//94 182//94
f 167//95 182//95 183//95
f 167//96 183//96 184//96
f 167//97 184//97 185//97
f 167//98 185//98 186//98
f 179//99 191//99 180//99 174//99
f 178//100 190//100 191//100 179//100
f 177//101 189//101 190//101 178//101
f 176//90 188//90 214//90 189//90 177//90
f 175//91 187//91 188//91 176//91
f 174//92 180//92 215//92 187//92 175//92
f 173//102 172//102 196//102 197//102
f 171//103 210//103 170//103 194//103 195//103
f 168//104 173//104 197//104 192//104
f 172//105 171//105 195//105 196//105
f 170//106 169//106 193//106 194//106
f 169//107 208//107 168//107 192//107 193//107
f 194//108 193//108 199//108 200//108
f 197//109 196//109 202//109 203//109
f 195//110 194//110 200//110 201//110
f 193//111 192//111 198//111 199//111
f 192//112 197//112 203//112 198//112
f 196//113 195//113 201//113 202//113
f 207//114 206//114 205//114 204//114
f 191//115 173//115 206//115 207//115
f 173//115 168//115 205//115 206//115
f 180//115 191//115 207//115 204//115
f 214//116 216//116 213//116 189//116
f 188//117 212//117 216//117 214//117
f 212//118 170//118 210//118 216//118
f 187//119 211//119 212//119 188//119
f 215//120 217//120 211//120 187//120
f 180//121 209//121 217//121 215//121
f 209//122 168//122 208//122 217//122
o legs_Cylinder
v 0.433013 2.976474 0.698508
v 0.433013 0.033244 1.198508
v 1.091861 3.988899 1.469571
v -0.000000 0.033244 1.448508
v -0.000000 4.732971 1.635119
v -0.433013 0.033244 1.198508
v -1.110158 3.988899 1.461536
v -0.433013 0.033244 0.698508
v -0.433013 2.976474 0.698508
v 0.000000 0.033244 0.448508
v 0.433013 0.033244 0.698508
v 0.000000 0.033244 -1.448508
v -0.000000 4.732971 -1.635119
v 0.433013 0.033244 -1.198508
v 1.091861 3.988899 -1.469571
v 0.433013 0.033244 -0.698508
v 0.433013 2.976474 -0.698508
v -0.000000 0.033244 -0.448508
v -0.433013 0.033244 -0.698508
v -0.433013 2.976474 -0.698508
v -0.433013 0.033244 -1.198508
v -1.110158 3.988899 -1.461536
v 0.019414 0.552635 1.198508
v -0.413599 0.552635 1.448508
v -0.846611 0.552635 1.198508
v -0.846611 0.552635 0.698508
v -0.413599 0.552634 0.448508
v 0.019414 0.552635 0.698508
v -0.413599 0.552634 -1.448508
v 0.019414 0.552635 -1.198508
v 0.019414 0.552635 -0.698508
v -0.413599 0.552635 -0.448508
v -0.846611 0.552635 -0.698508
v -0.846611 0.552635 -1.198508
v 0.740546 1.533244 0.448508
v 0.740546 1.533244 -1.448508
v 0.740546 1.533244 1.448508
v 0.307533 1.533244 1.198508
v 1.173559 1.533244 0.698508
v 1.173559 1.533244 1.198508
v 0.307533 1.533244 0.698508
v 1.173559 1.533244 -1.198508
v 1.173559 1.533244 -0.698508
v 0.740546 1.533244 -0.448508
v 0.307533 1.533244 -0.698508
v 0.307533 1.533244 -1.198508
vn 0.7915 0.2069 -0.5751
vn 0.2431 -0.0431 0.9691
vn -0.1934 -0.1509 0.9695
vn -0.8741 -0.4781 -0.0854
vn 0.0000 -1.0000 0.0000
vn 0.2431 -0.0431 -0.9691
vn 0.7915 0.2069 0.5751
vn -0.0026 -0.4983 -0.8670
vn -0.8741 -0.4781 0.0854
vn -0.1934 -0.1509 -0.9695
vn -0.4645 -0.3699 -0.8046
vn -0.7823 -0.6229 0.0000
vn -0.4645 -0.3699 0.8046
vn 0.4645 0.3699 0.8046
vn 0.7823 0.6229 0.0000
vn 0.4645 0.3699 -0.8046
vn -0.4309 0.5072 -0.7464
vn -0.6475 0.7621 0.0000
vn -0.4309 0.5072 0.7464
vn 0.4309 -0.5072 0.7464
vn 0.6475 -0.7621 0.0000
vn 0.4309 -0.5072 -0.7464
vn 0.0018 0.3764 0.9265
vn 0.0000 -0.1707 -0.9853
vn 0.0018 0.3764 -0.9265
vn -0.4843 -0.2485 0.8389
vn 0.4843 0.2485 -0.8389
vn -0.4843 -0.2485 -0.8389
usemtl Material.002
s off
f 256//123 218//123 220//123 257//123
f 257//124 220//124 222//124 254//124
f 254//125 222//125 224//125 255//125
f 255//126 224//126 226//126 258//126
f 227//127 228//127 219//127 221//127 223//127 225//127
f 253//128 230//128 232//128 259//128
f 259//129 232//129 234//129 260//129
f 232//130 234//130 237//130 239//130 230//130
f 262//131 237//131 239//131 263//131
f 263//132 239//132 230//132 253//132
f 229//127 231//127 233//127 235//127 236//127 238//127
f 238//133 251//133 246//133 229//133
f 236//134 250//134 251//134 238//134
f 235//135 249//135 250//135 236//135
f 233//136 248//136 249//136 235//136
f 231//137 247//137 248//137 233//137
f 229//138 246//138 247//138 231//138
f 225//133 243//133 244//133 227//133
f 228//137 245//137 240//137 219//137
f 227//138 244//138 245//138 228//138
f 223//134 242//134 243//134 225//134
f 221//135 241//135 242//135 223//135
f 219//136 240//136 241//136 221//136
f 251//139 263//139 253//139 246//139
f 250//140 262//140 263//140 251//140
f 249//141 261//141 262//141 250//141
f 248//142 260//142 261//142 249//142
f 247//143 259//143 260//143 248//143
f 246//144 253//144 259//144 247//144
f 243//139 258//139 252//139 244//139
f 242//140 255//140 258//140 243//140
f 240//142 257//142 254//142 241//142
f 245//143 256//143 257//143 240//143
f 244//144 252//144 256//144 245//144
f 241//141 254//141 255//141 242//141
f 230//145 239//145 237//145 262//145 261//145 260//145 234//145 232//145
f 234//146 261//146 237//146
f 220//147 218//147 256//147 252//147 258//147 226//147 224//147 222//147
f 260//127 261//127 262//127
f 218//148 252//148 256//148
f 237//149 261//149 262//149
f 261//150 234//150 260//150
