# Blender v2.79 (sub 0) OBJ File: 'trex.blend'
# www.blender.org
mtllib trex.mtl
o hands_Cylinder.005
v 4.345365 4.220535 0.719910
v 4.345365 4.690227 0.719910
v 4.839211 4.220535 1.005031
v 4.839211 4.690227 1.005031
v 4.839211 4.220535 1.575275
v 4.839211 4.690227 1.575275
v 4.345365 4.220535 1.860397
v 4.345365 4.690227 1.860397
v 3.851520 4.220535 1.575275
v 3.851520 4.690227 1.575275
v 3.851520 4.220535 1.005032
v 3.851520 4.690227 1.005032
v 4.338409 4.220535 -2.015769
v 4.338409 4.690227 -2.015769
v 4.832254 4.220535 -1.730648
v 4.832254 4.690227 -1.730648
v 4.832254 4.220535 -1.160404
v 4.832254 4.690227 -1.160404
v 4.338409 4.220535 -0.875283
v 4.338409 4.690227 -0.875283
v 3.844564 4.220535 -1.160404
v 3.844564 4.690227 -1.160404
v 3.844564 4.220535 -1.730648
v 3.844564 4.690227 -1.730648
v 4.839211 4.220535 1.005031
v 4.839211 4.690227 1.005031
v 4.839211 4.220535 1.575275
v 4.839211 4.690227 1.575275
v 5.373413 4.321830 1.290153
v 4.832254 4.220535 -1.730648
v 4.832254 4.690227 -1.730648
v 4.832254 4.220535 -1.160404
v 4.832254 4.690227 -1.160404
v 4.856190 4.321830 2.174928
v 4.849234 4.321830 -0.560751
v 5.366457 4.321830 -1.445526
v 4.896950 4.321830 0.334780
v 4.889995 4.321830 -2.400899
vn 0.0000 0.0000 1.0000
vn 0.5677 0.8232 0.0000
vn 0.2862 0.8200 0.4957
vn -0.5000 0.0000 0.8660
vn 0.0000 1.0000 0.0000
vn -1.0000 0.0000 0.0000
vn -0.5000 0.0000 -0.8660
vn 0.0000 -1.0000 0.0000
vn 0.2587 0.8558 -0.4481
vn -0.5243 0.0000 0.8515
vn -0.5725 0.0000 -0.8199
vn 0.4709 0.0000 0.8822
vn 0.9963 0.0000 0.0858
vn 0.0942 -0.9821 0.1632
vn 0.9996 0.0000 -0.0283
vn 0.0820 -0.9865 -0.1420
vn 0.1863 -0.9825 0.0000
vn 0.4709 0.0000 -0.8822
usemtl Material.003
s off
f 25//1 3//1 37//1
f 16//2 18//2 36//2
f 18//3 20//3 35//3
f 7//4 8//4 10//4 9//4
f 4//5 2//5 12//5 10//5 8//5 6//5
f 9//6 10//6 12//6 11//6
f 11//7 12//7 2//7 1//7
f 1//8 3//8 5//8 7//8 9//8 11//8
f 14//9 16//9 38//9
f 18//1 33//1 36//1
f 8//10 7//10 34//10
f 19//4 20//4 22//4 21//4
f 16//5 14//5 24//5 22//5 20//5 18//5
f 21//6 22//6 24//6 23//6
f 23//7 24//7 14//7 13//7
f 13//8 15//8 17//8 19//8 21//8 23//8
f 1//11 2//11 37//11
f 33//12 32//12 36//12
f 33//1 18//1 35//1
f 26//13 25//13 37//13
f 6//1 28//1 29//1
f 19//14 17//14 35//14
f 6//3 8//3 34//3
f 31//13 30//13 38//13
f 27//15 28//15 34//15
f 15//16 13//16 38//16
f 28//1 6//1 34//1
f 17//17 15//17 36//17
f 2//9 4//9 37//9
f 32//15 33//15 35//15
f 15//1 30//1 36//1
f 4//1 26//1 37//1
f 17//1 32//1 35//1
f 20//10 19//10 35//10
f 5//1 27//1 34//1
f 7//14 5//14 34//14
f 31//1 16//1 36//1
f 27//1 5//1 29//1
f 25//18 26//18 29//18
f 26//1 4//1 29//1
f 32//1 17//1 36//1
f 5//17 3//17 29//17
f 30//18 31//18 36//18
f 4//2 6//2 29//2
f 28//12 27//12 29//12
f 3//1 25//1 29//1
f 30//1 15//1 38//1
f 13//11 14//11 38//11
f 16//1 31//1 38//1
f 3//16 1//16 37//16
o arms_Cylinder.004
v 3.284970 3.614079 0.712430
v 2.941879 4.036736 0.712430
v 3.778815 3.614079 0.997551
v 3.435724 4.036736 0.997551
v 3.778815 3.614079 1.567795
v 3.435724 4.036736 1.567795
v 3.284970 3.614079 1.852916
v 2.941879 4.036736 1.852916
v 2.791124 3.614079 1.567795
v 2.448034 4.036736 1.567795
v 2.791124 3.614079 0.997551
v 2.448034 4.036736 0.997551
v 3.309893 3.614079 -2.004262
v 2.966803 4.036736 -2.004262
v 3.803739 3.614079 -1.719141
v 3.460648 4.036736 -1.719141
v 3.803739 3.614079 -1.148897
v 3.460648 4.036736 -1.148897
v 3.309893 3.614079 -0.863775
v 2.966803 4.036736 -0.863775
v 2.816048 3.614079 -1.148897
v 2.472958 4.036736 -1.148897
v 2.816048 3.614079 -1.719141
v 2.472958 4.036736 -1.719141
v 2.941879 4.892295 0.712430
v 3.435724 4.892295 0.997551
v 3.435724 4.892295 1.567795
v 2.941879 4.892295 1.852916
v 2.448034 4.892295 1.567795
v 2.448034 4.892295 0.997551
v 2.966803 4.892295 -2.004262
v 3.460648 4.892295 -1.719141
v 3.460648 4.892295 -1.148897
v 2.966803 4.892295 -0.863775
v 2.472958 4.892295 -1.148897
v 2.472958 4.892295 -1.719141
v 4.403607 4.228300 0.712430
v 4.897452 4.228300 0.997551
v 4.897452 4.228300 1.567795
v 4.403607 4.228300 1.852916
v 3.909762 4.228300 1.567795
v 3.909762 4.228300 0.997551
v 4.428531 4.228300 -2.004262
v 4.922376 4.228300 -1.719141
v 4.922376 4.228300 -1.148897
v 4.428531 4.228300 -0.863775
v 3.934686 4.228300 -1.148897
v 3.934686 4.228300 -1.719141
vn 0.4633 0.3761 -0.8024
vn 0.7764 0.6302 0.0000
vn 0.4633 0.3761 0.8024
vn -0.4633 -0.3761 0.8024
vn -0.5000 0.0000 0.8660
vn -0.7764 -0.6302 0.0000
vn -0.4633 -0.3761 -0.8024
vn 0.4813 -0.8766 0.0000
vn -1.0000 0.0000 0.0000
vn -0.3697 0.6733 -0.6403
vn 0.0000 1.0000 0.0000
vn -0.5000 0.0000 -0.8660
vn 0.5000 0.0000 -0.8660
vn 0.5000 0.0000 0.8660
vn 1.0000 0.0000 0.0000
vn 0.0000 -1.0000 0.0000
vn -0.4813 0.8766 0.0000
vn 0.3697 -0.6733 -0.6403
vn -0.3697 0.6733 0.6403
vn 0.3697 -0.6733 0.6403
usemtl Material.005
s off
f 39//19 40//19 42//19 41//19
f 41//20 42//20 44//20 43//20
f 43//21 44//21 46//21 45//21
f 45//22 46//22 48//22 47//22
f 48//23 46//23 66//23 67//23
f 47//24 48//24 50//24 49//24
f 49//25 50//25 40//25 39//25
f 59//26 61//26 86//26 85//26
f 51//19 52//19 54//19 53//19
f 53//20 54//20 56//20 55//20
f 55//21 56//21 58//21 57//21
f 57//22 58//22 60//22 59//22
f 50//27 48//27 67//27 68//27
f 59//24 60//24 62//24 61//24
f 61//25 62//25 52//25 51//25
f 43//28 45//28 78//28 77//28
f 64//29 63//29 68//29 67//29 66//29 65//29
f 70//29 69//29 74//29 73//29 72//29 71//29
f 52//30 62//30 74//30 69//30
f 42//31 40//31 63//31 64//31
f 46//32 44//32 65//32 66//32
f 62//27 60//27 73//27 74//27
f 44//33 42//33 64//33 65//33
f 60//23 58//23 72//23 73//23
f 54//31 52//31 69//31 70//31
f 58//32 56//32 71//32 72//32
f 56//33 54//33 70//33 71//33
f 40//30 50//30 68//30 63//30
f 75//34 76//34 77//34 78//34 79//34 80//34
f 81//34 82//34 83//34 84//34 85//34 86//34
f 41//35 43//35 77//35 76//35
f 57//36 59//36 85//36 84//36
f 51//37 53//37 82//37 81//37
f 55//28 57//28 84//28 83//28
f 53//35 55//35 83//35 82//35
f 49//38 39//38 75//38 80//38
f 47//26 49//26 80//26 79//26
f 45//36 47//36 79//36 78//36
f 61//38 51//38 81//38 86//38
f 39//37 41//37 76//37 75//37
o head_Cylinder.003
v 3.234359 7.747737 -1.533896
v 3.234359 9.997419 -1.533896
v 5.253775 7.127126 -1.175109
v 5.546727 10.339035 -1.175109
v 5.253775 7.127126 0.808831
v 5.546727 10.339035 0.808831
v 3.234359 7.747737 1.167618
v 3.234359 9.997419 1.167618
v 2.612922 8.270034 0.216311
v 2.612922 9.997419 0.216311
v 2.612922 8.270034 -0.501263
v 2.612922 9.997419 -0.501263
v 5.253775 8.562273 -1.175109
v 5.253775 7.127126 -0.142476
v 5.546727 10.339035 -0.142476
v 5.253775 8.562273 0.808831
v 4.950078 10.653543 -0.291024
v 4.478261 10.705556 -0.439573
v 4.950078 10.653543 -0.142476
v 4.478261 10.705556 0.154621
v 4.950078 10.653543 0.006073
v 3.464685 10.705556 0.006073
v 3.464685 10.705556 -0.291024
v 7.947050 8.628750 -0.142476
v 7.858995 7.997625 -0.142476
v 5.253775 7.127126 -0.321869
v 5.253775 7.127126 0.036917
v 6.179695 9.936382 -0.995716
v 6.179695 9.936382 0.629438
v 6.179695 9.936382 -0.142476
v 5.546727 10.339035 0.036917
v 5.546727 10.339035 -0.321869
v 5.894011 8.192365 0.629438
v 5.894011 8.192365 -0.995716
v 7.370858 7.327145 -0.142476
v 5.937916 8.905509 0.629438
v 5.937916 8.905509 -0.995716
v 7.370858 7.327145 0.629438
v 7.370858 7.327145 -0.995716
v 7.808870 9.282566 0.243481
v 7.808870 9.282566 -0.569096
v 8.112063 9.282566 -0.142476
vn 0.1687 -0.0090 -0.9856
vn 0.1687 -0.0090 0.9856
vn -0.8372 0.0000 0.5469
vn -0.0013 0.8715 0.4904
vn -1.0000 0.0000 0.0000
vn -0.8568 0.0000 -0.5156
vn -0.3755 -0.9268 0.0000
vn 0.5367 0.8437 0.0000
vn 0.0350 0.9994 0.0000
vn -0.3085 0.8499 -0.4271
vn -0.3036 0.8391 0.4514
vn 0.4663 0.8846 0.0000
vn -0.6393 0.7690 0.0000
vn -0.0093 0.8895 -0.4568
vn 0.2373 0.3144 -0.9192
vn 0.0941 -0.9956 0.0000
vn 0.2634 -0.1787 -0.9480
vn 0.2252 0.2928 0.9293
vn 0.2491 -0.1645 0.9544
vn 0.8084 -0.5886 0.0000
vn 0.4555 0.8754 -0.1619
vn 0.4542 0.8728 0.1784
vn -0.7713 0.1947 -0.6059
vn -0.7984 0.2015 0.5674
usemtl Material.001
s off
f 87//39 88//39 90//39 99//39 89//39
f 91//40 102//40 92//40 94//40 93//40
f 93//41 94//41 96//41 95//41
f 94//42 92//42 107//42 106//42
f 95//43 96//43 98//43 97//43
f 97//44 98//44 88//44 87//44
f 87//45 89//45 112//45 100//45 113//45 91//45 93//45 95//45 97//45
f 90//46 118//46 114//46
f 103//47 104//47 109//47 108//47 106//47 107//47 105//47
f 88//48 98//48 109//48 104//48
f 96//49 94//49 106//49 108//49
f 92//50 117//50 101//50 105//50 107//50
f 101//50 118//50 90//50 103//50 105//50
f 98//51 96//51 108//51 109//51
f 90//52 88//52 104//52 103//52
f 89//53 99//53 120//53 111//53 125//53
f 100//54 112//54 121//54
f 91//54 113//54 124//54
f 90//55 114//55 127//55 110//55 123//55 99//55
f 102//56 91//56 124//56 111//56 119//56
f 92//57 102//57 122//57 110//57 126//57 115//57
f 101//46 117//46 116//46
f 112//54 89//54 125//54
f 121//54 112//54 125//54
f 121//58 125//58 111//58
f 113//54 100//54 121//54
f 124//54 113//54 121//54
f 118//46 101//46 116//46
f 114//46 118//46 116//46
f 114//59 116//59 128//59 110//59 127//59
f 117//46 92//46 115//46
f 124//58 121//58 111//58
f 116//46 117//46 115//46
f 116//60 115//60 126//60 110//60 128//60
f 128//61 110//61 126//61
f 110//62 128//62 127//62
o Feet_Cylinder.002
v -0.471302 -0.354947 0.399229
v -0.471302 0.114745 0.399229
v 0.022543 -0.354947 0.684351
v 0.022543 0.114745 0.684351
v 0.022543 -0.354947 1.254595
v 0.022543 0.114745 1.254595
v -0.471302 -0.354947 1.539716
v -0.471302 0.114745 1.539716
v -0.965148 -0.354947 1.254594
v -0.965148 0.114745 1.254594
v -0.965148 -0.354947 0.684351
v -0.965148 0.114745 0.684351
v -0.478258 -0.354947 -1.757059
v -0.478258 0.114745 -1.757059
v 0.015587 -0.354947 -1.471937
v 0.015587 0.114745 -1.471937
v 0.015587 -0.354947 -0.901694
v 0.015587 0.114745 -0.901694
v -0.478258 -0.354947 -0.616572
v -0.478258 0.114745 -0.616572
v -0.972103 -0.354947 -0.901694
v -0.972103 0.114745 -0.901694
v -0.972103 -0.354947 -1.471937
v -0.972103 0.114745 -1.471937
v 0.022543 -0.354947 0.684351
v 0.022543 0.114745 0.684351
v 0.022543 -0.354947 1.254595
v 0.022543 0.114745 1.254595
v 0.556746 -0.253652 0.969473
v 0.015587 -0.354947 -1.471937
v 0.015587 0.114745 -1.471937
v 0.015587 -0.354947 -0.901694
v 0.015587 0.114745 -0.901694
v 0.039522 -0.253652 1.854248
v 0.032567 -0.253652 -0.302041
v 0.549790 -0.253652 -1.186815
v 0.080283 -0.253652 0.014099
v 0.073327 -0.253652 -2.142189
vn 0.0000 0.0000 1.0000
vn 0.5677 0.8232 0.0000
vn 0.2862 0.8200 0.4957
vn -0.5000 0.0000 0.8660
vn 0.0000 1.0000 -0.0000
vn -1.0000 0.0000 0.0000
vn -0.5000 0.0000 -0.8660
vn 0.0000 -1.0000 0.0000
vn 0.2587 0.8558 -0.4481
vn -0.5243 0.0000 0.8515
vn -0.5725 0.0000 -0.8199
vn 0.4709 0.0000 0.8822
vn 0.9963 0.0000 0.0858
vn 0.0942 -0.9821 0.1632
vn 0.9996 0.0000 -0.0283
vn 0.0820 -0.9865 -0.1420
vn 0.1863 -0.9825 0.0000
vn 0.4709 0.0000 -0.8822
usemtl None
s off
f 153//63 131//63 165//63
f 144//64 146//64 164//64
f 146//65 148//65 163//65
f 135//66 136//66 138//66 137//66
f 132//67 130//67 140//67 138//67 136//67 134//67
f 137//68 138//68 140//68 139//68
f 139//69 140//69 130//69 129//69
f 129//70 131//70 133//70 135//70 137//70 139//70
f 142//71 144//71 166//71
f 146//63 161//63 164//63
f 136//72 135//72 162//72
f 147//66 148//66 150//66 149//66
f 144//67 142//67 152//67 150//67 148//67 146//67
f 149//68 150//68 152//68 151//68
f 151//69 152//69 142//69 141//69
f 141//70 143//70 145//70 147//70 149//70 151//70
f 129//73 130//73 165//73
f 161//74 160//74 164//74
f 161//63 146//63 163//63
f 154//75 153//75 165//75
f 134//63 156//63 157//63
f 147//76 145//76 163//76
f 134//65 136//65 162//65
f 159//75 158//75 166//75
f 155//77 156//77 162//77
f 143//78 141//78 166//78
f 156//63 134//63 162//63
f 145//79 143//79 164//79
f 130//71 132//71 165//71
f 160//77 161//77 163//77
f 143//63 158//63 164//63
f 132//63 154//63 165//63
f 145//63 160//63 163//63
f 148//72 147//72 163//72
f 133//63 155//63 162//63
f 135//76 133//76 162//76
f 159//63 144//63 164//63
f 155//63 133//63 157//63
f 153//80 154//80 157//80
f 154//63 132//63 157//63
f 160//63 145//63 164//63
f 133//79 131//79 157//79
f 158//80 159//80 164//80
f 132//64 134//64 157//64
f 156//74 155//74 157//74
f 131//63 153//63 157//63
f 158//63 143//63 166//63
f 141//73 142//73 166//73
f 144//63 159//63 166//63
f 131//78 129//78 165//78
o body_Cylinder.001
v -8.603521 3.011762 -0.101715
v 3.231114 5.552516 -1.596625
v 4.906796 5.550519 -0.849170
v 4.906796 5.550519 0.645739
v 3.231114 5.552516 1.393193
v 2.894623 6.951552 0.412817
v 2.894623 6.951552 -0.616248
v -0.489388 3.788856 -1.596624
v -0.152896 2.538721 -0.849170
v -0.152896 2.538721 0.645739
v -0.489388 3.788856 1.393193
v -0.825879 6.984812 0.645739
v -0.825879 6.984812 -0.849170
v 0.954144 4.177403 -1.596624
v -1.596428 2.150174 -0.849170
v -1.596428 2.150174 0.645739
v -1.932919 3.400309 1.393193
v -2.269411 5.892474 0.645739
v -2.269411 5.892474 -0.849170
v -1.932920 3.400309 -1.596624
v 1.290635 2.927268 -0.849170
v 1.290636 2.927268 0.645739
v 0.954144 4.177403 1.393193
v 0.617652 7.232601 0.645739
v 0.617652 7.232601 -0.849170
v 3.306373 6.061955 -0.615788
v 5.167907 6.061268 -0.358752
v 5.167908 6.061268 0.155320
v 3.306373 6.061955 0.412357
v 2.894623 6.777657 0.645739
v 2.894623 6.777657 -0.849170
v 3.306373 8.335413 -0.615788
v 5.499760 8.334726 -0.358752
v 5.499760 8.334726 0.155321
v 3.306373 8.335413 0.412357
v 3.190660 8.426049 0.155321
v 3.190660 8.426049 -0.358752
v 0.954144 4.177403 -1.596624
v 3.231114 5.552516 -1.596625
v 2.894623 6.951552 -0.616248
v 0.617652 7.232601 -0.849170
v 4.679295 5.551517 -1.222898
v 2.092629 4.864960 -1.596625
v 4.679295 5.551517 1.019466
v 4.511683 4.238894 -0.849170
v 4.511683 4.238893 0.645738
v 2.092629 4.864960 1.393193
v 1.122390 3.552336 1.019466
v 1.122390 3.552336 -1.222897
v 2.290503 4.551927 1.019466
v 2.290503 4.551927 -1.222897
vn 0.2443 -0.2943 -0.9240
vn 0.9575 -0.2884 -0.0000
vn 0.2594 -0.5423 0.7991
vn -0.0379 0.3564 0.9336
vn 0.1225 0.9925 0.0000
vn 0.0000 0.0710 -0.9975
vn -0.1224 0.2387 -0.9633
vn -0.6034 0.7974 0.0000
vn -0.1224 0.2387 0.9633
vn 0.1300 -0.4828 0.8660
vn 0.2599 -0.9656 -0.0000
vn 0.1300 -0.4828 -0.8660
vn -0.1545 -0.5373 -0.8291
vn -0.1220 -0.9925 -0.0000
vn -0.1545 -0.5373 0.8291
vn -0.2256 0.2518 0.9411
vn -0.4140 0.9103 0.0000
vn -0.2256 0.2518 -0.9411
vn -0.0501 0.2272 -0.9726
vn -0.1692 0.9856 0.0000
vn -0.0501 0.2272 0.9726
vn 1.0000 0.0000 -0.0000
vn 0.1493 0.8388 0.5236
vn 0.8740 0.4044 -0.2694
vn 0.8740 0.4044 0.2694
vn 0.8904 -0.4552 -0.0000
vn 0.1493 0.8388 -0.5236
vn 0.9895 -0.1444 -0.0000
vn -0.9843 0.1768 0.0000
vn 0.1258 -0.0092 0.9920
vn 0.1258 -0.0092 -0.9920
vn 0.1292 0.1134 -0.9851
vn 0.1292 0.1134 0.9851
vn -0.0379 0.3564 -0.9336
vn 0.0000 0.0000 1.0000
vn 0.3596 -0.4916 0.7931
vn 0.1673 -0.3176 0.9333
vn 0.2443 -0.2943 0.9240
vn 0.3771 -0.9262 -0.0000
vn 0.1673 -0.3176 -0.9333
vn 0.3596 -0.4916 -0.7931
vn 0.2594 -0.5423 -0.7991
usemtl Material.004
s off
f 217//81 208//81 169//81 211//81
f 211//82 169//82 170//82 212//82
f 216//83 210//83 171//83 213//83
f 189//84 213//84 171//84 172//84 190//84
f 190//85 172//85 173//85 191//85
f 168//86 209//86 180//86 204//86 205//86
f 185//87 179//87 174//87 186//87
f 184//88 178//88 179//88 185//88
f 183//89 177//89 178//89 184//89
f 182//90 176//90 177//90 183//90
f 181//91 175//91 176//91 182//91
f 186//92 174//92 175//92 181//92
f 167//93 186//93 181//93
f 167//94 181//94 182//94
f 167//95 182//95 183//95
f 167//96 183//96 184//96
f 167//97 184//97 185//97
f 167//98 185//98 186//98
f 179//99 191//99 180//99 174//99
f 178//100 190//100 191//100 179//100
f 177//101 189//101 190//101 178//101
f 176//90 188//90 214//90 189//90 177//90
f 175//91 187//91 188//91 176//91
f 174//92 180//92 215//92 187//92 175//92
f 173//102 172//102 196//102 197//102
f 171//103 210//103 170//103 194//103 195//103
f 168//104 173//104 197//104 192//104
f 172//105 171//105 195//105 196//105
f 170//106 169//106 193//106 194//106
f 169//107 208//107 168//107 192//107 193//107
f 194//108 193//108 199//108 200//108
f 197//109 196//109 202//109 203//109
f 195//110 194//110 200//110 201//110
f 193//111 192//111 198//111 199//111
f 192//112 197//112 203//112 198//112
f 196//113 195//113 201//113 202//113
f 207//114 206//114 205//114 204//114
f 191//115 173//115 206//115 207//115
f 173//115 168//115 205//115 206//115
f 180//115 191//115 207//115 204//115
f 214//116 216//116 213//116 189//116
f 188//117 212//117 216//117 214//117
f 212//118 170//118 210//118 216//118
f 187//119 211//119 212//119 188//119
f 215//120 217//120 211//120 187//120
f 180//121 209//121 217//121 215//121
f 209//122 168//122 208//122 217//122
o legs_Cylinder
v 0.004458 2.994907 0.694924
v 0.004458 -0.361808 1.265167
v 0.755865 4.149564 1.574311
v -0.489388 -0.361808 1.550289
v -0.489388 4.998168 1.763116
v -0.983233 -0.361808 1.265167
v -1.755508 4.149564 1.565147
v -0.983233 -0.361808 0.694924
v -0.983233 2.994907 0.694924
v -0.489388 -0.361808 0.409802
v 0.004458 -0.361808 0.694924
v -0.489388 -0.361808 -1.753720
v -0.489388 4.998168 -1.966547
v 0.004458 -0.361808 -1.468598
v 0.755865 4.149564 -1.777742
v 0.004458 -0.361808 -0.898355
v 0.004458 2.994907 -0.898355
v -0.489388 -0.361808 -0.613233
v -0.983233 -0.361808 -0.898355
v -0.983233 2.994907 -0.898355
v -0.983233 -0.361808 -1.468598
v -1.755508 4.149564 -1.768578
v -0.467246 0.230550 1.265167
v -0.961092 0.230550 1.550289
v -1.454937 0.230550 1.265167
v -1.454937 0.230550 0.694924
v -0.961092 0.230550 0.409802
v -0.467246 0.230550 0.694924
v -0.961092 0.230550 -1.753720
v -0.467246 0.230550 -1.468598
v -0.467246 0.230550 -0.898355
v -0.961092 0.230550 -0.613233
v -1.454937 0.230550 -0.898355
v -1.454937 0.230550 -1.468598
v 0.355195 1.348922 0.409802
v 0.355195 1.348922 -1.753720
v 0.355195 1.348922 1.550289
v -0.138650 1.348922 1.265167
v 0.849041 1.348922 0.694924
v 0.849041 1.348922 1.265167
v -0.138650 1.348922 0.694924
v 0.849041 1.348922 -1.468598
v 0.849041 1.348922 -0.898355
v 0.355195 1.348922 -0.613233
v -0.138650 1.348922 -0.898355
v -0.138650 1.348922 -1.468598
vn 0.7915 0.2069 -0.5751
vn 0.2431 -0.0431 0.9691
vn -0.1934 -0.1509 0.9695
vn -0.8741 -0.4781 -0.0854
vn 0.0000 -1.0000 0.0000
vn 0.2431 -0.0431 -0.9691
vn 0.7915 0.2069 0.5751
vn -0.0026 -0.4983 -0.8670
vn -0.8741 -0.4781 0.0854
vn -0.1934 -0.1509 -0.9695
vn -0.4645 -0.3699 -0.8046
vn -0.7823 -0.6229 0.0000
vn -0.4645 -0.3699 0.8046
vn 0.4645 0.3699 0.8046
vn 0.7823 0.6229 0.0000
vn 0.4645 0.3699 -0.8046
vn -0.4309 0.5072 -0.7464
vn -0.6475 0.7621 0.0000
vn -0.4309 0.5072 0.7464
vn 0.4309 -0.5072 0.7464
vn 0.6475 -0.7621 0.0000
vn 0.4309 -0.5072 -0.7464
vn 0.0018 0.3764 0.9265
vn 0.0000 -0.1707 -0.9853
vn 0.0018 0.3764 -0.9265
vn -0.4843 -0.2485 0.8389
vn 0.4843 0.2485 -0.8389
vn -0.4843 -0.2485 -0.8389
usemtl Material.002
s off
f 256//123 218//123 220//123 257//123
f 257//124 220//124 222//124 254//124
f 254//125 222//125 224//125 255//125
f 255//126 224//126 226//126 258//126
f 227//127 228//127 219//127 221//127 223//127 225//127
f 253//128 230//128 232//128 259//128
f 259//129 232//129 234//129 260//129
f 232//130 234//130 237//130 239//130 230//130
f 262//131 237//131 239//131 263//131
f 263//132 239//132 230//132 253//132
f 229//127 231//127 233//127 235//127 236//127 238//127
f 238//133 251//133 246//133 229//133
f 236//134 250//134 251//134 238//134
f 235//135 249//135 250//135 236//135
f 233//136 248//136 249//136 235//136
f 231//137 247//137 248//137 233//137
f 229//138 246//138 247//138 231//138
f 225//133 243//133 244//133 227//133
f 228//137 245//137 240//137 219//137
f 227//138 244//138 245//138 228//138
f 223//134 242//134 243//134 225//134
f 221//135 241//135 242//135 223//135
f 219//136 240//136 241//136 221//136
f 251//139 263//139 253//139 246//139
f 250//140 262//140 263//140 251//140
f 249//141 261//141 262//141 250//141
f 248//142 260//142 261//142 249//142
f 247//143 259//143 260//143 248//143
f 246//144 253//144 259//144 247//144
f 243//139 258//139 252//139 244//139
f 242//140 255//140 258//140 243//140
f 240//142 257//142 254//142 241//142
f 245//143 256//143 257//143 240//143
f 244//144 252//144 256//144 245//144
f 241//141 254//141 255//141 242//141
f 230//145 239//145 237//145 262//145 261//145 260//145 234//145 232//145
f 234//146 261//146 237//146
f 220//147 218//147 256//147 252//147 258//147 226//147 224//147 222//147
f 260//127 261//127 262//127
f 218//148 252//148 256//148
f 237//149 261//149 262//149
f 261//150 234//150 260//150
